# xmcd
#
# Track frame offsets: 
#        182
#        17670
#        40770
#        58940
#        79952
#        102270
#        119652
#        143795
#        163860
#        183112
#        202927
#        217170
#        237195
#        254267
#        271272
#
# Disc length: 3852 seconds
#
# Revision: 1
# Processed by: cddbd v1.5.2PL0 Copyright (c) Steve Scherf et al.
# Submitted via: ExactAudioCopy v0.99pb5
#
DISCID=d70f0a0f
DTITLE=Various Artist - Summerlove
DYEAR=1987
DGENRE=Pop
TTITLE0=Bonnie Bianco and Pierre Cosso - Stay
TTITLE1=William Pitt - City lights
TTITLE2=Richard Sanderson - Reality
TTITLE3=Commodores - You're the only woman I need
TTITLE4=Elkie Brooks - No more the fool
TTITLE5=Phil Carmen - Vertigo
TTITLE6=Chris Rea - Wired to the moon
TTITLE7=Kool and The Gang - Stone love
TTITLE8=Chris De Burgh - The lady in red
TTITLE9=Agnetha Fältskog - The angels cry
TTITLE10=Elton John and Cliff Richard - Slow rivers
TTITLE11=Bob Geldof - This is the world calling
TTITLE12=Rita Coolidge - I don't want to talk about it
TTITLE13=Trio Rio - I'm still in love with you
TTITLE14=Walker Brothers - Stand by me
EXTD=
EXTT0=
EXTT1=
EXTT2=
EXTT3=
EXTT4=
EXTT5=
EXTT6=
EXTT7=
EXTT8=
EXTT9=
EXTT10=
EXTT11=
EXTT12=
EXTT13=
EXTT14=
PLAYORDER=
